<mxfile host="Electron" agent="Mozilla/5.0 (X11; Linux x86_64) AppleWebKit/537.36 (KHTML, like Gecko) draw.io/24.7.17 Chrome/128.0.6613.36 Electron/32.0.1 Safari/537.36" version="24.7.17">
  <diagram name="Page-1" id="AJuB1pZKnc-4aXdDqCv7">
    <mxGraphModel dx="1368" dy="958" grid="1" gridSize="10" guides="1" tooltips="1" connect="1" arrows="1" fold="1" page="1" pageScale="1" pageWidth="827" pageHeight="1169" math="0" shadow="0">
      <root>
        <mxCell id="0" />
        <mxCell id="1" parent="0" />
        <mxCell id="ttsIPFC4K9WC2a3eoAj_-7" value="&lt;div style=&quot;font-size: 1px&quot;&gt;&lt;font style=&quot;font-size:22.58px;font-family:Arial;color:#000000;direction:ltr;letter-spacing:0px;line-height:120%;opacity:1&quot;&gt;Global Load Balancer&lt;br&gt;&lt;/font&gt;&lt;/div&gt;" style="verticalAlign=middle;align=center;overflow=width;vsdxID=5;fillColor=#e3ebff;gradientColor=none;shape=stencil(vVNBDsIgEHwNRwxCjHqu+g9iaUtEaBa09fdSwdpi9dBDb8vOwOwsGcQyW/FaIEqsA3MRjcxdhdgBUSp1JUA6XyF2RCwrDIgSzE3n4VzzjtlVV3PvXmjDPdLdoOQRTrvtavNqnAKXw9mDELkBIhDJaxrJZIy/YRLfbjFvpcVgHHfS6JGu4lAK7GVwoXg5gmwjRP3VjoMpqQcm9tPKs0z0Y6crWcBHqt0PN8tJspXFfmNKdpaBH8tYwML/VPjiE6dCKhXSOMTT+PlWiC47PgE=);strokeColor=none;spacingTop=-3;spacingBottom=-3;spacingLeft=-3;spacingRight=-3;points=[];labelBackgroundColor=none;rounded=0;html=1;whiteSpace=wrap;" vertex="1" parent="1">
          <mxGeometry x="313" y="80" width="350" height="44" as="geometry" />
        </mxCell>
        <mxCell id="ttsIPFC4K9WC2a3eoAj_-8" value="&lt;div style=&quot;font-size: 1px&quot;&gt;&lt;font style=&quot;font-size:22.58px;font-family:Arial;color:#000000;direction:ltr;letter-spacing:0px;line-height:120%;opacity:1&quot;&gt;CDN&lt;br&gt;&lt;/font&gt;&lt;/div&gt;" style="verticalAlign=middle;align=center;overflow=width;vsdxID=5;fillColor=#e3ebff;gradientColor=none;shape=stencil(vVNBDsIgEHwNRwxCjHqu+g9iaUtEaBa09fdSwdpi9dBDb8vOwOwsGcQyW/FaIEqsA3MRjcxdhdgBUSp1JUA6XyF2RCwrDIgSzE3n4VzzjtlVV3PvXmjDPdLdoOQRTrvtavNqnAKXw9mDELkBIhDJaxrJZIy/YRLfbjFvpcVgHHfS6JGu4lAK7GVwoXg5gmwjRP3VjoMpqQcm9tPKs0z0Y6crWcBHqt0PN8tJspXFfmNKdpaBH8tYwML/VPjiE6dCKhXSOMTT+PlWiC47PgE=);strokeColor=none;spacingTop=-3;spacingBottom=-3;spacingLeft=-3;spacingRight=-3;points=[];labelBackgroundColor=none;rounded=0;html=1;whiteSpace=wrap;" vertex="1" parent="1">
          <mxGeometry x="313" y="150" width="350" height="44" as="geometry" />
        </mxCell>
        <mxCell id="ttsIPFC4K9WC2a3eoAj_-9" style="vsdxID=5;fillColor=#d0cee2;strokeColor=#56517e;spacingTop=-3;spacingBottom=-3;spacingLeft=-3;spacingRight=-3;points=[];labelBackgroundColor=none;rounded=0;html=1;whiteSpace=wrap;" vertex="1" parent="1">
          <mxGeometry x="6" y="310" width="310" height="240" as="geometry" />
        </mxCell>
        <mxCell id="ttsIPFC4K9WC2a3eoAj_-10" style="vsdxID=6;fillColor=#d0cee2;shape=stencil(vVPREoIgEPwaHnFQmtJnq/9gEpWJxDkp7e+DoEnDerAZ3467PZa9YxHNu5q1HCWk06DOvBeFrhHdoyQRTc1BaBMhekA0LxXwCtS1Kdy5ZRZpo4u62RsG10dsR0Lu7pSRaPNMHB2WwckUwWPjKKUODi98tHWJAOEBMfEEA2aD6DAozbRQzYRcMqg4Nly4lKyalLqe8zZI+9dJ0YyUZGkU72bJl4ohX4azgpiA279toZRwNqutJfgSf+1kfioryPjtExO8DVYKKZ0/x/VPQ5qUMzM9PAA=);strokeColor=#56517e;spacingTop=-3;spacingBottom=-3;spacingLeft=-3;spacingRight=-3;points=[];labelBackgroundColor=none;rounded=0;html=1;whiteSpace=wrap;" vertex="1" parent="ttsIPFC4K9WC2a3eoAj_-9">
          <mxGeometry width="310" height="240" as="geometry" />
        </mxCell>
        <mxCell id="ttsIPFC4K9WC2a3eoAj_-11" value="&lt;div style=&quot;font-size: 1px&quot;&gt;&lt;font style=&quot;font-size:22.58px;font-family:Arial;color:#000000;direction:ltr;letter-spacing:0px;line-height:120%;opacity:1&quot;&gt;Москва&lt;/font&gt;&lt;/div&gt;" style="verticalAlign=middle;align=center;overflow=width;vsdxID=7;fillColor=none;gradientColor=none;shape=stencil(nZBLDoAgDERP0z3SIyjew0SURgSD+Lu9kMZoXLhwN9O+tukAlrNpJg1SzDH4QW/URgNYgZTkjA4UkwJUgGXng+6DX1zLfmoymdXo17xh5zmRJ6Q42BWCfc2oJfdAr+Yv+AP9Cb7OJ3H/2JG1HNGz/84klThPVCc=);strokeColor=none;points=[];labelBackgroundColor=none;rounded=0;html=1;whiteSpace=wrap;" vertex="1" parent="ttsIPFC4K9WC2a3eoAj_-9">
          <mxGeometry x="94.58105646630237" y="196" width="120.83788706739526" height="42" as="geometry" />
        </mxCell>
        <mxCell id="ttsIPFC4K9WC2a3eoAj_-12" value="Kubernetes cluster&lt;br&gt;(хостинг микросенвисов)" style="rounded=0;whiteSpace=wrap;html=1;" vertex="1" parent="ttsIPFC4K9WC2a3eoAj_-9">
          <mxGeometry x="30" y="37.89473684210526" width="120" height="75.78947368421052" as="geometry" />
        </mxCell>
        <mxCell id="ttsIPFC4K9WC2a3eoAj_-13" value="Redis&lt;br&gt;(кеширование)" style="rounded=0;whiteSpace=wrap;html=1;" vertex="1" parent="ttsIPFC4K9WC2a3eoAj_-9">
          <mxGeometry x="160" y="37.89473684210526" width="120" height="75.78947368421052" as="geometry" />
        </mxCell>
        <mxCell id="ttsIPFC4K9WC2a3eoAj_-14" value="Kafka&lt;br&gt;(асинхронная обработка)" style="rounded=0;whiteSpace=wrap;html=1;" vertex="1" parent="ttsIPFC4K9WC2a3eoAj_-9">
          <mxGeometry x="30" y="126.3157894736842" width="120" height="75.78947368421052" as="geometry" />
        </mxCell>
        <mxCell id="ttsIPFC4K9WC2a3eoAj_-15" value="PostgreSQL&lt;br&gt;(реплика)" style="rounded=0;whiteSpace=wrap;html=1;" vertex="1" parent="ttsIPFC4K9WC2a3eoAj_-9">
          <mxGeometry x="160" y="126.31578947368422" width="120" height="75.78947368421052" as="geometry" />
        </mxCell>
        <mxCell id="ttsIPFC4K9WC2a3eoAj_-16" value="&lt;div style=&quot;font-size: 1px&quot;&gt;&lt;font style=&quot;font-size:22.58px;font-family:Arial;color:#000000;direction:ltr;letter-spacing:0px;line-height:120%;opacity:1&quot;&gt;Primary database&lt;/font&gt;&lt;/div&gt;" style="verticalAlign=middle;align=center;overflow=width;vsdxID=5;fillColor=#e3ebff;gradientColor=none;shape=stencil(vVNBDsIgEHwNRwxCjHqu+g9iaUtEaBa09fdSwdpi9dBDb8vOwOwsGcQyW/FaIEqsA3MRjcxdhdgBUSp1JUA6XyF2RCwrDIgSzE3n4VzzjtlVV3PvXmjDPdLdoOQRTrvtavNqnAKXw9mDELkBIhDJaxrJZIy/YRLfbjFvpcVgHHfS6JGu4lAK7GVwoXg5gmwjRP3VjoMpqQcm9tPKs0z0Y6crWcBHqt0PN8tJspXFfmNKdpaBH8tYwML/VPjiE6dCKhXSOMTT+PlWiC47PgE=);strokeColor=none;spacingTop=-3;spacingBottom=-3;spacingLeft=-3;spacingRight=-3;points=[];labelBackgroundColor=none;rounded=0;html=1;whiteSpace=wrap;" vertex="1" parent="1">
          <mxGeometry x="328" y="650" width="320" height="50" as="geometry" />
        </mxCell>
        <mxCell id="ttsIPFC4K9WC2a3eoAj_-17" value="&lt;div style=&quot;font-size: 1px&quot;&gt;&lt;font style=&quot;font-size:22.58px;font-family:Arial;color:#000000;direction:ltr;letter-spacing:0px;line-height:120%;opacity:1&quot;&gt;Backup storage&lt;/font&gt;&lt;/div&gt;" style="verticalAlign=middle;align=center;overflow=width;vsdxID=5;fillColor=#e3ebff;gradientColor=none;shape=stencil(vVNBDsIgEHwNRwxCjHqu+g9iaUtEaBa09fdSwdpi9dBDb8vOwOwsGcQyW/FaIEqsA3MRjcxdhdgBUSp1JUA6XyF2RCwrDIgSzE3n4VzzjtlVV3PvXmjDPdLdoOQRTrvtavNqnAKXw9mDELkBIhDJaxrJZIy/YRLfbjFvpcVgHHfS6JGu4lAK7GVwoXg5gmwjRP3VjoMpqQcm9tPKs0z0Y6crWcBHqt0PN8tJspXFfmNKdpaBH8tYwML/VPjiE6dCKhXSOMTT+PlWiC47PgE=);strokeColor=none;spacingTop=-3;spacingBottom=-3;spacingLeft=-3;spacingRight=-3;points=[];labelBackgroundColor=none;rounded=0;html=1;whiteSpace=wrap;" vertex="1" parent="1">
          <mxGeometry x="328" y="760" width="320" height="50" as="geometry" />
        </mxCell>
        <mxCell id="ttsIPFC4K9WC2a3eoAj_-18" style="vsdxID=5;fillColor=#d0cee2;strokeColor=#56517e;spacingTop=-3;spacingBottom=-3;spacingLeft=-3;spacingRight=-3;points=[];labelBackgroundColor=none;rounded=0;html=1;whiteSpace=wrap;" vertex="1" parent="1">
          <mxGeometry x="340" y="310" width="310" height="240" as="geometry" />
        </mxCell>
        <mxCell id="ttsIPFC4K9WC2a3eoAj_-19" style="vsdxID=6;fillColor=#d0cee2;shape=stencil(vVPREoIgEPwaHnFQmtJnq/9gEpWJxDkp7e+DoEnDerAZ3467PZa9YxHNu5q1HCWk06DOvBeFrhHdoyQRTc1BaBMhekA0LxXwCtS1Kdy5ZRZpo4u62RsG10dsR0Lu7pSRaPNMHB2WwckUwWPjKKUODi98tHWJAOEBMfEEA2aD6DAozbRQzYRcMqg4Nly4lKyalLqe8zZI+9dJ0YyUZGkU72bJl4ohX4azgpiA279toZRwNqutJfgSf+1kfioryPjtExO8DVYKKZ0/x/VPQ5qUMzM9PAA=);strokeColor=#56517e;spacingTop=-3;spacingBottom=-3;spacingLeft=-3;spacingRight=-3;points=[];labelBackgroundColor=none;rounded=0;html=1;whiteSpace=wrap;" vertex="1" parent="ttsIPFC4K9WC2a3eoAj_-18">
          <mxGeometry width="310" height="240" as="geometry" />
        </mxCell>
        <mxCell id="ttsIPFC4K9WC2a3eoAj_-20" value="&lt;div style=&quot;font-size: 1px&quot;&gt;&lt;font style=&quot;font-size:22.58px;font-family:Arial;color:#000000;direction:ltr;letter-spacing:0px;line-height:120%;opacity:1&quot;&gt;Новосибирск&lt;/font&gt;&lt;/div&gt;" style="verticalAlign=middle;align=center;overflow=width;vsdxID=7;fillColor=none;gradientColor=none;shape=stencil(nZBLDoAgDERP0z3SIyjew0SURgSD+Lu9kMZoXLhwN9O+tukAlrNpJg1SzDH4QW/URgNYgZTkjA4UkwJUgGXng+6DX1zLfmoymdXo17xh5zmRJ6Q42BWCfc2oJfdAr+Yv+AP9Cb7OJ3H/2JG1HNGz/84klThPVCc=);strokeColor=none;points=[];labelBackgroundColor=none;rounded=0;html=1;whiteSpace=wrap;" vertex="1" parent="ttsIPFC4K9WC2a3eoAj_-18">
          <mxGeometry x="70" y="196" width="170" height="42" as="geometry" />
        </mxCell>
        <mxCell id="ttsIPFC4K9WC2a3eoAj_-21" value="Kubernetes cluster&lt;br&gt;(хостинг микросенвисов)" style="rounded=0;whiteSpace=wrap;html=1;" vertex="1" parent="ttsIPFC4K9WC2a3eoAj_-18">
          <mxGeometry x="30" y="37.89473684210526" width="120" height="75.78947368421052" as="geometry" />
        </mxCell>
        <mxCell id="ttsIPFC4K9WC2a3eoAj_-22" value="Redis&lt;br&gt;(кеширование)" style="rounded=0;whiteSpace=wrap;html=1;" vertex="1" parent="ttsIPFC4K9WC2a3eoAj_-18">
          <mxGeometry x="160" y="37.89473684210526" width="120" height="75.78947368421052" as="geometry" />
        </mxCell>
        <mxCell id="ttsIPFC4K9WC2a3eoAj_-23" value="Kafka&lt;br&gt;(асинхронная обработка)" style="rounded=0;whiteSpace=wrap;html=1;" vertex="1" parent="ttsIPFC4K9WC2a3eoAj_-18">
          <mxGeometry x="30" y="126.3157894736842" width="120" height="75.78947368421052" as="geometry" />
        </mxCell>
        <mxCell id="ttsIPFC4K9WC2a3eoAj_-24" value="PostgreSQL&lt;br&gt;(реплика)" style="rounded=0;whiteSpace=wrap;html=1;" vertex="1" parent="ttsIPFC4K9WC2a3eoAj_-18">
          <mxGeometry x="160" y="126.31578947368422" width="120" height="75.78947368421052" as="geometry" />
        </mxCell>
        <mxCell id="ttsIPFC4K9WC2a3eoAj_-25" style="vsdxID=5;fillColor=#d0cee2;strokeColor=#56517e;spacingTop=-3;spacingBottom=-3;spacingLeft=-3;spacingRight=-3;points=[];labelBackgroundColor=none;rounded=0;html=1;whiteSpace=wrap;" vertex="1" parent="1">
          <mxGeometry x="670" y="310" width="310" height="240" as="geometry" />
        </mxCell>
        <mxCell id="ttsIPFC4K9WC2a3eoAj_-26" style="vsdxID=6;fillColor=#d0cee2;shape=stencil(vVPREoIgEPwaHnFQmtJnq/9gEpWJxDkp7e+DoEnDerAZ3467PZa9YxHNu5q1HCWk06DOvBeFrhHdoyQRTc1BaBMhekA0LxXwCtS1Kdy5ZRZpo4u62RsG10dsR0Lu7pSRaPNMHB2WwckUwWPjKKUODi98tHWJAOEBMfEEA2aD6DAozbRQzYRcMqg4Nly4lKyalLqe8zZI+9dJ0YyUZGkU72bJl4ohX4azgpiA279toZRwNqutJfgSf+1kfioryPjtExO8DVYKKZ0/x/VPQ5qUMzM9PAA=);strokeColor=#56517e;spacingTop=-3;spacingBottom=-3;spacingLeft=-3;spacingRight=-3;points=[];labelBackgroundColor=none;rounded=0;html=1;whiteSpace=wrap;" vertex="1" parent="ttsIPFC4K9WC2a3eoAj_-25">
          <mxGeometry width="310" height="240" as="geometry" />
        </mxCell>
        <mxCell id="ttsIPFC4K9WC2a3eoAj_-27" value="&lt;div style=&quot;font-size: 1px&quot;&gt;&lt;font style=&quot;font-size:22.58px;font-family:Arial;color:#000000;direction:ltr;letter-spacing:0px;line-height:120%;opacity:1&quot;&gt;Владивосток&lt;/font&gt;&lt;/div&gt;" style="verticalAlign=middle;align=center;overflow=width;vsdxID=7;fillColor=none;gradientColor=none;shape=stencil(nZBLDoAgDERP0z3SIyjew0SURgSD+Lu9kMZoXLhwN9O+tukAlrNpJg1SzDH4QW/URgNYgZTkjA4UkwJUgGXng+6DX1zLfmoymdXo17xh5zmRJ6Q42BWCfc2oJfdAr+Yv+AP9Cb7OJ3H/2JG1HNGz/84klThPVCc=);strokeColor=none;points=[];labelBackgroundColor=none;rounded=0;html=1;whiteSpace=wrap;" vertex="1" parent="ttsIPFC4K9WC2a3eoAj_-25">
          <mxGeometry x="70" y="196" width="180" height="42" as="geometry" />
        </mxCell>
        <mxCell id="ttsIPFC4K9WC2a3eoAj_-28" value="Kubernetes cluster&lt;br&gt;(хостинг микросенвисов)" style="rounded=0;whiteSpace=wrap;html=1;" vertex="1" parent="ttsIPFC4K9WC2a3eoAj_-25">
          <mxGeometry x="30" y="37.89473684210526" width="120" height="75.78947368421052" as="geometry" />
        </mxCell>
        <mxCell id="ttsIPFC4K9WC2a3eoAj_-29" value="Redis&lt;br&gt;(кеширование)" style="rounded=0;whiteSpace=wrap;html=1;" vertex="1" parent="ttsIPFC4K9WC2a3eoAj_-25">
          <mxGeometry x="160" y="37.89473684210526" width="120" height="75.78947368421052" as="geometry" />
        </mxCell>
        <mxCell id="ttsIPFC4K9WC2a3eoAj_-30" value="Kafka&lt;br&gt;(асинхронная обработка)" style="rounded=0;whiteSpace=wrap;html=1;" vertex="1" parent="ttsIPFC4K9WC2a3eoAj_-25">
          <mxGeometry x="30" y="126.3157894736842" width="120" height="75.78947368421052" as="geometry" />
        </mxCell>
        <mxCell id="ttsIPFC4K9WC2a3eoAj_-31" value="PostgreSQL&lt;br&gt;(реплика)" style="rounded=0;whiteSpace=wrap;html=1;" vertex="1" parent="ttsIPFC4K9WC2a3eoAj_-25">
          <mxGeometry x="160" y="126.31578947368422" width="120" height="75.78947368421052" as="geometry" />
        </mxCell>
        <mxCell id="ttsIPFC4K9WC2a3eoAj_-34" style="edgeStyle=orthogonalEdgeStyle;rounded=0;orthogonalLoop=1;jettySize=auto;html=1;exitX=0.75;exitY=1;exitDx=0;exitDy=0;entryX=0.181;entryY=0.02;entryDx=0;entryDy=0;entryPerimeter=0;startArrow=classic;startFill=1;" edge="1" parent="1" source="ttsIPFC4K9WC2a3eoAj_-15" target="ttsIPFC4K9WC2a3eoAj_-16">
          <mxGeometry relative="1" as="geometry" />
        </mxCell>
        <mxCell id="ttsIPFC4K9WC2a3eoAj_-55" value="active-active" style="edgeLabel;html=1;align=center;verticalAlign=middle;resizable=0;points=[];" vertex="1" connectable="0" parent="ttsIPFC4K9WC2a3eoAj_-34">
          <mxGeometry x="-0.1816" y="-2" relative="1" as="geometry">
            <mxPoint as="offset" />
          </mxGeometry>
        </mxCell>
        <mxCell id="ttsIPFC4K9WC2a3eoAj_-44" style="edgeStyle=orthogonalEdgeStyle;rounded=0;orthogonalLoop=1;jettySize=auto;html=1;exitX=0.75;exitY=1;exitDx=0;exitDy=0;entryX=0.506;entryY=0.02;entryDx=0;entryDy=0;entryPerimeter=0;" edge="1" parent="1" source="ttsIPFC4K9WC2a3eoAj_-24" target="ttsIPFC4K9WC2a3eoAj_-16">
          <mxGeometry relative="1" as="geometry" />
        </mxCell>
        <mxCell id="ttsIPFC4K9WC2a3eoAj_-56" value="active-active" style="edgeLabel;html=1;align=center;verticalAlign=middle;resizable=0;points=[];" vertex="1" connectable="0" parent="ttsIPFC4K9WC2a3eoAj_-44">
          <mxGeometry x="0.1046" y="3" relative="1" as="geometry">
            <mxPoint as="offset" />
          </mxGeometry>
        </mxCell>
        <mxCell id="ttsIPFC4K9WC2a3eoAj_-45" style="edgeStyle=orthogonalEdgeStyle;rounded=0;orthogonalLoop=1;jettySize=auto;html=1;exitX=0.75;exitY=1;exitDx=0;exitDy=0;entryX=0.913;entryY=0;entryDx=0;entryDy=0;entryPerimeter=0;" edge="1" parent="1" source="ttsIPFC4K9WC2a3eoAj_-31" target="ttsIPFC4K9WC2a3eoAj_-16">
          <mxGeometry relative="1" as="geometry" />
        </mxCell>
        <mxCell id="ttsIPFC4K9WC2a3eoAj_-57" value="active-active" style="edgeLabel;html=1;align=center;verticalAlign=middle;resizable=0;points=[];" vertex="1" connectable="0" parent="ttsIPFC4K9WC2a3eoAj_-45">
          <mxGeometry x="0.2383" y="1" relative="1" as="geometry">
            <mxPoint as="offset" />
          </mxGeometry>
        </mxCell>
        <mxCell id="ttsIPFC4K9WC2a3eoAj_-49" value="" style="endArrow=classic;startArrow=classic;html=1;rounded=0;entryX=0.511;entryY=1.045;entryDx=0;entryDy=0;entryPerimeter=0;exitX=0.497;exitY=-0.008;exitDx=0;exitDy=0;exitPerimeter=0;" edge="1" parent="1" source="ttsIPFC4K9WC2a3eoAj_-10" target="ttsIPFC4K9WC2a3eoAj_-8">
          <mxGeometry width="50" height="50" relative="1" as="geometry">
            <mxPoint x="150" y="240" as="sourcePoint" />
            <mxPoint x="200" y="190" as="targetPoint" />
          </mxGeometry>
        </mxCell>
        <mxCell id="ttsIPFC4K9WC2a3eoAj_-53" value="" style="endArrow=classic;startArrow=classic;html=1;rounded=0;exitX=0.509;exitY=-0.002;exitDx=0;exitDy=0;exitPerimeter=0;entryX=0.515;entryY=1.046;entryDx=0;entryDy=0;entryPerimeter=0;" edge="1" parent="1" source="ttsIPFC4K9WC2a3eoAj_-19" target="ttsIPFC4K9WC2a3eoAj_-8">
          <mxGeometry width="50" height="50" relative="1" as="geometry">
            <mxPoint x="480" y="250" as="sourcePoint" />
            <mxPoint x="530" y="200" as="targetPoint" />
          </mxGeometry>
        </mxCell>
        <mxCell id="ttsIPFC4K9WC2a3eoAj_-54" value="" style="endArrow=classic;startArrow=classic;html=1;rounded=0;entryX=0.518;entryY=1.005;entryDx=0;entryDy=0;entryPerimeter=0;exitX=0.502;exitY=-0.007;exitDx=0;exitDy=0;exitPerimeter=0;" edge="1" parent="1" source="ttsIPFC4K9WC2a3eoAj_-26" target="ttsIPFC4K9WC2a3eoAj_-8">
          <mxGeometry width="50" height="50" relative="1" as="geometry">
            <mxPoint x="670" y="290" as="sourcePoint" />
            <mxPoint x="720" y="240" as="targetPoint" />
          </mxGeometry>
        </mxCell>
        <mxCell id="ttsIPFC4K9WC2a3eoAj_-58" value="" style="endArrow=classic;html=1;rounded=0;entryX=0.491;entryY=-0.06;entryDx=0;entryDy=0;entryPerimeter=0;exitX=0.491;exitY=1.06;exitDx=0;exitDy=0;exitPerimeter=0;" edge="1" parent="1" source="ttsIPFC4K9WC2a3eoAj_-16" target="ttsIPFC4K9WC2a3eoAj_-17">
          <mxGeometry width="50" height="50" relative="1" as="geometry">
            <mxPoint x="270" y="750" as="sourcePoint" />
            <mxPoint x="320" y="700" as="targetPoint" />
          </mxGeometry>
        </mxCell>
      </root>
    </mxGraphModel>
  </diagram>
</mxfile>
